<svg xmlns="http://www.w3.org/2000/svg" width="1329.18" height="854.76" viewBox="0 0 1329.18 854.76"><defs><style>.a,.b,.c,.e,.f,.g,.h{fill:none;stroke-miterlimit:10;}.a,.b{stroke:#0071bc;stroke-width:10px;}.a,.c,.h{opacity:0.4;}.b,.e{opacity:0.6;}.c{stroke:#22b573;stroke-linecap:round;stroke-width:16px;}.d{fill:#22b573;}.e{stroke:#f7931e;}.e,.f{stroke-width:6px;}.f{stroke:#ed1c24;opacity:0.5;}.g{stroke:#662d91;opacity:0.7;}.g,.h{stroke-width:8px;}.h{stroke:#2e3192;}</style></defs><title>Untitled-1</title><circle class="a" cx="117.93" cy="183.81" r="36.5"/><circle class="b" cx="1154.93" cy="515.81" r="26.5"/><path class="c" d="M1164.27,308.11a53.92,53.92,0,1,1,66.88,78" transform="translate(-340.57 -98.69)"/><circle class="d" cx="354.93" cy="563.81" r="21.5"/><path class="e" d="M695.72,469.53l14.41,43a3.21,3.21,0,0,0,5.45,1.11l30-34a3.21,3.21,0,0,0-1.77-5.27l-44.44-9A3.21,3.21,0,0,0,695.72,469.53Z" transform="translate(-340.57 -98.69)"/><path class="f" d="M1160.5,775.22l-26.75,30.28a2.86,2.86,0,0,0,1.57,4.69l39.6,8a2.86,2.86,0,0,0,3.28-3.7l-12.84-38.31A2.87,2.87,0,0,0,1160.5,775.22Z" transform="translate(-340.57 -98.69)"/><path class="g" d="M1656.12,113.06l-24.76-9.75a9,9,0,0,0-8.9,1.33l-20.82,16.57a9,9,0,0,0-3.3,8.38l3.94,26.31a9,9,0,0,0,5.6,7l24.76,9.75a9,9,0,0,0,8.9-1.33l20.82-16.57a9,9,0,0,0,3.3-8.38l-3.94-26.31A9,9,0,0,0,1656.12,113.06Z" transform="translate(-340.57 -98.69)"/><path class="h" d="M413.64,907.51l-15.91-21.33a9,9,0,0,0-8.27-3.56L363,885.73a9,9,0,0,0-7.22,5.38l-10.51,24.45a9,9,0,0,0,1.05,8.93l15.91,21.33a9,9,0,0,0,8.27,3.56L397,946.27a9,9,0,0,0,7.22-5.38l10.51-24.45A9,9,0,0,0,413.64,907.51Z" transform="translate(-340.57 -98.69)"/></svg>